<svg xmlns="http://www.w3.org/2000/svg" viewBox="0 0 720 200" role="img" aria-label="LIREI — Laboratoire d'innovation et de recherche en énergie intelligente" fill="none">
  <!-- energy ring -->
  <circle cx="28.5" cy="80.8" r="5.0" fill="#23a3c9"/>
  <circle cx="40.5" cy="56.1" r="5.7" fill="#22aac0"/>
  <circle cx="60.6" cy="37.3" r="6.4" fill="#20b1b7"/>
  <circle cx="86.2" cy="27.3" r="7.0" fill="#20b7ad"/>
  <circle cx="113.8" cy="27.3" r="7.5" fill="#26ba9d"/>
  <circle cx="139.4" cy="37.3" r="7.9" fill="#2cbd8d"/>
  <circle cx="159.5" cy="56.1" r="8.1" fill="#2ab77e"/>
  <circle cx="171.5" cy="80.8" r="8.2" fill="#1ea471"/>
  <circle cx="173.5" cy="108.3" r="8.1" fill="#139264"/>
  <circle cx="165.4" cy="134.6" r="7.9" fill="#159567"/>
  <circle cx="148.3" cy="156.1" r="7.5" fill="#21a874"/>
  <circle cx="124.4" cy="169.8" r="7.0" fill="#2dbb80"/>
  <circle cx="97.2" cy="173.9" r="6.4" fill="#2abc90"/>
  <circle cx="70.4" cy="167.8" r="5.7" fill="#25b9a0"/>
  <circle cx="47.7" cy="152.3" r="5.0" fill="#1fb6b0"/>
  <path d="M112 34 L72 106 L96 106 L86 166 L132 90 L104 90 L120 34 Z" fill="#0d2b45"/>
  <!-- wordmark -->
  <text x="214" y="112" font-family="Georgia, 'Times New Roman', serif" font-size="92" font-weight="700" letter-spacing="2" fill="#0d2b45">LIREI</text>
  <text x="217" y="150" font-family="system-ui, -apple-system, 'Segoe UI', Roboto, sans-serif" font-size="20" fill="#0e8a5f" font-weight="600">Laboratoire d'innovation et de recherche</text>
  <text x="217" y="176" font-family="system-ui, -apple-system, 'Segoe UI', Roboto, sans-serif" font-size="20" fill="#0e8a5f" font-weight="600">en énergie intelligente</text>
</svg>
