<svg xmlns="http://www.w3.org/2000/svg" viewBox="0 0 720 200" role="img" aria-label="LIREI — Laboratoire d'innovation et de recherche en énergie intelligente" fill="none">
  <!-- energy ring: tilted 3D orbit -->
  <g transform="rotate(7 100 100)">
    <ellipse cx="100.0" cy="148.4" rx="8.4" ry="5.2" fill="#1fb6b0"/>
    <ellipse cx="66.2" cy="143.6" rx="8.3" ry="5.1" fill="#25af78"/>
    <ellipse cx="39.0" cy="130.2" rx="7.9" ry="4.9" fill="#199c6b"/>
    <ellipse cx="24.0" cy="110.8" rx="7.3" ry="4.5" fill="#2dbb80"/>
    <ellipse cx="24.0" cy="89.2" rx="6.7" ry="4.1" fill="#2dbb80"/>
    <ellipse cx="39.0" cy="69.8" rx="6.1" ry="3.8" fill="#199c6b"/>
    <ellipse cx="66.2" cy="56.4" rx="5.7" ry="3.5" fill="#25af78"/>
    <ellipse cx="100.0" cy="51.6" rx="5.6" ry="3.5" fill="#1fb6b0"/>
    <ellipse cx="133.8" cy="56.4" rx="5.7" ry="3.5" fill="#22a9c1"/>
    <ellipse cx="161.0" cy="69.8" rx="6.1" ry="3.8" fill="#25b9a0"/>
    <ellipse cx="176.0" cy="89.2" rx="6.7" ry="4.1" fill="#2ebe86"/>
    <ellipse cx="176.0" cy="110.8" rx="7.3" ry="4.5" fill="#2ebe86"/>
    <ellipse cx="161.0" cy="130.2" rx="7.9" ry="4.9" fill="#25b9a0"/>
    <ellipse cx="133.8" cy="143.6" rx="8.3" ry="5.1" fill="#22a9c1"/>
  </g>
  <path d="M112 34 L72 106 L96 106 L86 166 L132 90 L104 90 L120 34 Z" fill="#0d2b45"/>
  <!-- wordmark -->
  <text x="214" y="112" font-family="Georgia, 'Times New Roman', serif" font-size="92" font-weight="700" letter-spacing="2" fill="#0d2b45">LIREI</text>
  <text x="217" y="150" font-family="system-ui, -apple-system, 'Segoe UI', Roboto, sans-serif" font-size="20" fill="#0e8a5f" font-weight="600">Laboratoire d'innovation et de recherche</text>
  <text x="217" y="176" font-family="system-ui, -apple-system, 'Segoe UI', Roboto, sans-serif" font-size="20" fill="#0e8a5f" font-weight="600">en énergie intelligente</text>
</svg>
