<svg xmlns="http://www.w3.org/2000/svg" viewBox="0 0 200 200">
  <rect width="200" height="200" rx="44" fill="#0d2b45"/>
  <g transform="rotate(7 100 100)">
    <ellipse cx="24.0" cy="89.2" rx="8.4" ry="5.2" fill="#3acf94"/>
    <ellipse cx="39.0" cy="69.8" rx="7.8" ry="4.8" fill="#28b882"/>
    <ellipse cx="66.2" cy="56.4" rx="7.3" ry="4.5" fill="#33c68d"/>
    <ellipse cx="100.0" cy="51.6" rx="7.1" ry="4.4" fill="#2dcdc8"/>
    <ellipse cx="133.8" cy="56.4" rx="7.3" ry="4.5" fill="#2cbcd6"/>
    <ellipse cx="161.0" cy="69.8" rx="7.8" ry="4.8" fill="#32cfb7"/>
    <ellipse cx="176.0" cy="89.2" rx="8.4" ry="5.2" fill="#3bd29a"/>
  </g>
  <path d="M112 34 L72 106 L96 106 L86 166 L132 90 L104 90 L120 34 Z" fill="#ffffff"/>
  <g transform="rotate(7 100 100)">
    <ellipse cx="100.0" cy="148.4" rx="10.5" ry="6.5" fill="#2dcdc8"/>
    <ellipse cx="66.2" cy="143.6" rx="10.3" ry="6.4" fill="#33c68d"/>
    <ellipse cx="39.0" cy="130.2" rx="9.8" ry="6.1" fill="#28b882"/>
    <ellipse cx="24.0" cy="110.8" rx="9.2" ry="5.7" fill="#3acf94"/>
    <ellipse cx="176.0" cy="110.8" rx="9.2" ry="5.7" fill="#3bd29a"/>
    <ellipse cx="161.0" cy="130.2" rx="9.8" ry="6.1" fill="#32cfb7"/>
    <ellipse cx="133.8" cy="143.6" rx="10.3" ry="6.4" fill="#2cbcd6"/>
  </g>
</svg>
